<?xml version="1.0" encoding="UTF-8"?><svg id="Calque_1" xmlns="http://www.w3.org/2000/svg" viewBox="0 0 250 100"><defs><style>.cls-1{fill:#fd4d01;}.cls-2{fill:#034c62;}</style></defs><g><path class="cls-2" d="M49.49,22.47H29.05c-.14,0-.28,.05-.38,.15L11.45,38.95l10.05,9.05c1.29-.86,3.05-.78,4.26,.31,1.43,1.28,1.54,3.48,.26,4.91-1.29,1.43-3.49,1.54-4.91,.26-1.2-1.09-1.47-2.83-.75-4.2l-10.15-9.14-2.52,2.38c-.22,.22-.23,.56-.02,.78l16.09,16.73c.2,.22,.54,.22,.76,.03l8.49-7.68c.23-.21,.24-.57,.02-.79l-14.59-14.8c-.16-.17-.22-.42-.14-.65l.39-1.13c.08-.25,.32-.42,.59-.42l30.21-.33c.3,0,.55-.25,.55-.55v-10.69c0-.31-.25-.56-.56-.56Z"/><path class="cls-2" d="M54.6,52.01l-16.4-16.4c-.21-.21-.55-.22-.76,0l-8.34,7.84c-.23,.22-.23,.58,0,.79l14.87,14.5c.18,.17,.24,.42,.16,.65l-.38,1.13c-.08,.25-.31,.42-.58,.43l-30.2,.92c-.3,0-.54,.26-.53,.56l.21,10.69c0,.3,.25,.54,.56,.54l20.44-.41c.14,0,.27-.05,.37-.15l16.61-16.38-10.03-9.03c-1.3,.87-3.06,.79-4.27-.3-1.43-1.29-1.54-3.49-.25-4.91,1.29-1.43,3.49-1.54,4.91-.25,1.2,1.09,1.47,2.83,.75,4.2l10.11,9.1,2.76-2.72c.22-.22,.22-.57,0-.79Z"/></g><g><path class="cls-2" d="M81.34,25.98v4.01h-9.73c-1.05,0-1.57,.67-1.57,1.39,0,.61,.41,1.25,1.22,1.45l6.94,1.63c3.02,.7,4.41,3.05,4.41,5.34,0,2.85-2,5.63-5.87,5.63h-10.42v-4.04h10.28c1.02,0,1.63-.75,1.63-1.54,0-.64-.41-1.28-1.31-1.48l-6.97-1.66c-2.99-.73-4.38-3.02-4.38-5.26,0-2.79,1.97-5.49,5.75-5.49h10.02Z"/><path class="cls-2" d="M95.79,30.97h3.89v14.46h-3.89v-1.92h-.15c-.9,1.34-2.56,2.32-4.67,2.35-3.92,0-6.88-3.08-6.88-7.64s2.82-7.72,6.91-7.69c2.09,0,3.75,.99,4.65,2.29h.15v-1.86Zm0,7.23c0-2.24-1.6-3.95-3.86-3.95s-3.89,1.68-3.89,3.95,1.6,3.95,3.89,3.95,3.86-1.8,3.86-3.95Z"/><path class="cls-2" d="M116.84,37.07v8.36h-3.92v-7.78c0-2.09-1.34-3.25-2.96-3.25-1.77,0-3.28,1.36-3.28,3.54v7.49h-3.92V24.53h3.92v8.19h.12c.96-1.34,2.5-2.15,4.3-2.15,3.51,0,5.75,2.35,5.75,6.5Z"/><path class="cls-2" d="M133.59,39.51h-10.92c.23,1.48,1.51,2.73,3.51,2.82,1.34,.06,2.64-.55,3.17-1.48h4.09c-.96,3.22-3.83,5.02-7.26,5.02-4.88,0-7.52-3.6-7.52-7.67,0-4.3,3.11-7.67,7.55-7.67,4.82,0,7.9,3.86,7.38,8.97Zm-10.89-3.05h6.91c-.44-1.51-1.74-2.41-3.43-2.41s-3.08,.96-3.48,2.41Z"/><path class="cls-2" d="M135.65,24.53h3.92v16.03c0,.67,.44,1.07,1.16,1.07h1.95v3.8h-2.7c-2.76,0-4.33-1.57-4.33-4.18V24.53Z"/><path class="cls-2" d="M145.03,25.98h8.19c5.78,0,9.96,4.07,9.96,9.67v.09c0,5.6-4.18,9.7-9.96,9.7h-8.19V25.98Zm4.12,4.01v11.41h4.01c3.43,0,5.81-2.27,5.81-5.66v-.09c0-3.4-2.38-5.66-5.81-5.66h-4.01Z"/><path class="cls-2" d="M169.53,24.53v4.59h-3.92v-4.59h3.92Zm0,6.45v14.46h-3.92v-14.46h3.92Z"/><path class="cls-2" d="M183.35,30.97h3.89v15.94c0,2.79-1.6,4.33-4.41,4.33h-9.29v-3.92h8.45c.84,0,1.36-.46,1.36-1.31v-2.5h-.15c-.9,1.34-2.56,2.32-4.67,2.35-3.92,0-6.88-3.08-6.88-7.64s2.82-7.72,6.91-7.69c2.09,0,3.75,.99,4.65,2.29h.15v-1.86Zm0,7.23c0-2.24-1.6-3.95-3.86-3.95s-3.89,1.68-3.89,3.95,1.6,3.95,3.89,3.95,3.86-1.8,3.86-3.95Z"/><path class="cls-2" d="M194.24,24.53v4.59h-3.92v-4.59h3.92Zm0,6.45v14.46h-3.92v-14.46h3.92Z"/><path class="cls-2" d="M208.09,34.75h-5.95v5.78c0,.7,.46,1.1,1.16,1.1h4.79v3.8h-5.52c-2.64,0-4.36-1.63-4.36-4.24v-6.45h-2.03v-3.77h2.03v-4.99h3.92v4.99h5.95v3.77Z"/><path class="cls-2" d="M220.98,30.97h3.89v14.46h-3.89v-1.92h-.15c-.9,1.34-2.56,2.32-4.67,2.35-3.92,0-6.88-3.08-6.88-7.64s2.82-7.72,6.91-7.69c2.09,0,3.75,.99,4.65,2.29h.15v-1.86Zm0,7.23c0-2.24-1.6-3.95-3.86-3.95s-3.89,1.68-3.89,3.95,1.6,3.95,3.89,3.95,3.86-1.8,3.86-3.95Z"/><path class="cls-2" d="M227.77,24.53h3.92v16.03c0,.67,.44,1.07,1.16,1.07h1.95v3.8h-2.7c-2.76,0-4.33-1.57-4.33-4.18V24.53Z"/></g><g><path class="cls-1" d="M79.28,55.74v2.48h-8.47c-1.43,0-2.24,.99-2.24,2.03,0,.86,.52,1.75,1.67,2.03l6.41,1.56c2.58,.63,3.75,2.68,3.75,4.59,0,2.4-1.75,4.77-5,4.77h-8.99v-2.5h8.89c1.49,0,2.35-1.09,2.35-2.22,0-.89-.57-1.88-1.77-2.16l-6.44-1.56c-2.53-.62-3.62-2.61-3.62-4.43,0-2.32,1.69-4.59,4.85-4.59h8.63Z"/><path class="cls-1" d="M82.41,66.74c0-3.81,2.79-6.8,6.98-6.8s6.88,3,6.88,6.8-2.76,6.83-6.88,6.83-6.98-3.05-6.98-6.83Zm11.39,0c0-2.45-1.77-4.43-4.4-4.43s-4.48,1.98-4.48,4.43,1.77,4.46,4.48,4.46,4.4-2.03,4.4-4.46Z"/><path class="cls-1" d="M98.9,54.44h2.48v15.09c0,.81,.47,1.28,1.3,1.28h2.08v2.4h-2.45c-2.22,0-3.41-1.23-3.41-3.34v-15.43Z"/><path class="cls-1" d="M106.66,60.3h2.48v7.12c0,2.16,1.41,3.78,3.57,3.78s3.6-1.62,3.6-3.78v-7.12h2.48v7.14c0,3.7-2.42,6.12-6.07,6.12s-6.05-2.42-6.05-6.12v-7.14Z"/><path class="cls-1" d="M131.63,62.7h-5.86v6.8c0,.81,.47,1.28,1.3,1.28h4.56v2.42h-5.06c-2.11,0-3.28-1.15-3.28-3.23v-7.27h-2.35v-2.4h2.35v-4.56h2.48v4.56h5.86v2.4Z"/><path class="cls-1" d="M137.02,54.44v3.78h-2.48v-3.78h2.48Zm0,5.86v12.9h-2.48v-12.9h2.48Z"/><path class="cls-1" d="M139.78,66.74c0-3.81,2.79-6.8,6.98-6.8s6.88,3,6.88,6.8-2.76,6.83-6.88,6.83-6.98-3.05-6.98-6.83Zm11.39,0c0-2.45-1.77-4.43-4.4-4.43s-4.48,1.98-4.48,4.43,1.77,4.46,4.48,4.46,4.4-2.03,4.4-4.46Z"/><path class="cls-1" d="M168.89,65.8v7.4h-2.48v-6.96c0-2.24-1.3-3.91-3.54-3.91-2.37,0-3.99,1.85-3.99,4.43v6.44h-2.48v-12.9h2.42v1.75h.1c.99-1.25,2.55-2.11,4.46-2.11,3.28,0,5.5,2.29,5.5,5.86Z"/><path class="cls-1" d="M182.31,60.3v2.4h-7.12c-.65,0-1.09,.42-1.09,1.09,0,.6,.36,.99,.86,1.09l5.32,1.2c1.82,.42,2.95,1.77,2.95,3.49,0,2.08-1.54,3.62-3.67,3.62h-7.53v-2.4h7.48c.63,0,1.12-.44,1.12-1.2,0-.6-.34-1.02-.89-1.15l-5.34-1.17c-1.77-.39-2.89-1.77-2.89-3.47,0-2.03,1.54-3.52,3.65-3.52h7.17Z"/></g></svg>